# Blender v2.76 (sub 0) OBJ File: 'coin.blend'
# www.blender.org
mtllib Coin.mtl
o Circle_Circle.001
v -0.490425 -0.097384 0.025000
v -0.415826 -0.277648 0.025000
v -0.277922 -0.415643 0.025000
v -0.097707 -0.490360 0.025000
v 0.097384 -0.490425 0.025000
v 0.277648 -0.415826 0.025000
v 0.415643 -0.277922 0.025000
v 0.490361 -0.097707 0.025000
v 0.490425 0.097384 0.025000
v 0.415826 0.277648 0.025000
v 0.277922 0.415643 0.025000
v 0.097707 0.490360 0.025000
v -0.097384 0.490425 0.025000
v -0.277648 0.415826 0.025000
v -0.415643 0.277922 0.025000
v -0.490360 0.097707 0.025000
v -0.490425 -0.097384 -0.025000
v -0.415826 -0.277648 -0.025000
v -0.277922 -0.415643 -0.025000
v -0.097707 -0.490360 -0.025000
v 0.097384 -0.490425 -0.025000
v 0.277648 -0.415826 -0.025000
v 0.415643 -0.277922 -0.025000
v 0.490361 -0.097707 -0.025000
v 0.490425 0.097384 -0.025000
v 0.415826 0.277648 -0.025000
v 0.277922 0.415643 -0.025000
v 0.097707 0.490360 -0.025000
v -0.097384 0.490425 -0.025000
v -0.277648 0.415826 -0.025000
v -0.415643 0.277922 -0.025000
v -0.490360 0.097707 -0.025000
vt 0.314583 0.060565
vt 0.353831 0.021317
vt 0.405111 0.000076
vt 0.460616 0.000076
vt 0.511896 0.021317
vt 0.551143 0.060564
vt 0.572384 0.111844
vt 0.572384 0.167349
vt 0.551143 0.218629
vt 0.511896 0.257877
vt 0.460616 0.279117
vt 0.405111 0.279117
vt 0.353831 0.257877
vt 0.314583 0.218629
vt 0.293343 0.167349
vt 0.293343 0.111844
vt 0.257877 0.060564
vt 0.279117 0.111844
vt 0.279117 0.167349
vt 0.257876 0.218629
vt 0.218629 0.257877
vt 0.167349 0.279117
vt 0.111844 0.279117
vt 0.060564 0.257876
vt 0.021316 0.218629
vt 0.000076 0.167349
vt 0.000076 0.111844
vt 0.021317 0.060564
vt 0.060564 0.021316
vt 0.111844 0.000076
vt 0.167349 0.000076
vt 0.218629 0.021317
vt 0.293343 0.500379
vt 0.279117 0.500379
vt 0.279117 0.444874
vt 0.293343 0.444874
vt 0.293343 0.888914
vt 0.279118 0.888914
vt 0.279117 0.833409
vt 0.293343 0.833409
vt 0.279117 0.389369
vt 0.293343 0.389369
vt 0.279117 0.777904
vt 0.293343 0.777904
vt 0.279117 0.333864
vt 0.293343 0.333864
vt 0.279117 0.722399
vt 0.293343 0.722399
vt 0.279117 0.278359
vt 0.293343 0.278359
vt 0.279117 0.666894
vt 0.293343 0.666894
vt 0.279117 0.222854
vt 0.293343 0.222854
vt 0.279117 0.611389
vt 0.293343 0.611389
vt 0.279117 0.555884
vt 0.293343 0.555884
vt 0.293343 0.999924
vt 0.279118 0.999924
vt 0.279118 0.944419
vt 0.293343 0.944419
vn -0.620600 -0.414300 0.665700
vn -0.414700 -0.620300 0.665700
vn -0.145800 -0.731800 0.665700
vn 0.145300 -0.731900 0.665700
vn 0.414300 -0.620600 0.665700
vn 0.620300 -0.414700 0.665700
vn 0.731800 -0.145800 0.665700
vn 0.731900 0.145300 0.665700
vn 0.620600 0.414300 0.665700
vn 0.414700 0.620300 0.665700
vn 0.145800 0.731800 0.665700
vn -0.145300 0.731900 0.665700
vn -0.414300 0.620600 0.665700
vn -0.620300 0.414700 0.665700
vn -0.731800 0.145800 0.665700
vn -0.731900 -0.145300 0.665700
vn -0.620600 -0.414300 -0.665700
vn -0.731900 -0.145300 -0.665700
vn -0.731800 0.145800 -0.665700
vn -0.620300 0.414700 -0.665700
vn -0.414300 0.620600 -0.665700
vn -0.145300 0.731900 -0.665700
vn 0.145800 0.731800 -0.665700
vn 0.414700 0.620300 -0.665700
vn 0.620600 0.414300 -0.665700
vn 0.731900 0.145300 -0.665700
vn 0.731800 -0.145800 -0.665700
vn 0.620300 -0.414700 -0.665700
vn 0.414300 -0.620600 -0.665700
vn 0.145300 -0.731900 -0.665700
vn -0.145800 -0.731800 -0.665700
vn -0.414700 -0.620300 -0.665700
usemtl Material
s 1
f 2/1/1 3/2/2 4/3/3 5/4/4 6/5/5 7/6/6 8/7/7 9/8/8 10/9/9 11/10/10 12/11/11 13/12/12 14/13/13 15/14/14 16/15/15 1/16/16
f 18/17/17 17/18/18 32/19/19 31/20/20 30/21/21 29/22/22 28/23/23 27/24/24 26/25/25 25/26/26 24/27/27 23/28/28 22/29/29 21/30/30 20/31/31 19/32/32
f 10/33/9 26/34/25 27/35/24 11/36/10
f 3/37/2 19/38/32 20/39/31 4/40/3
f 11/36/10 27/35/24 28/41/23 12/42/11
f 4/40/3 20/39/31 21/43/30 5/44/4
f 12/42/11 28/41/23 29/45/22 13/46/12
f 5/44/4 21/43/30 22/47/29 6/48/5
f 13/46/12 29/45/22 30/49/21 14/50/13
f 6/48/5 22/47/29 23/51/28 7/52/6
f 14/50/13 30/49/21 31/53/20 15/54/14
f 7/52/6 23/51/28 24/55/27 8/56/7
f 15/54/14 31/53/20 32/19/19 16/15/15
f 8/56/7 24/55/27 25/57/26 9/58/8
f 1/59/16 17/60/18 18/61/17 2/62/1
f 16/15/15 32/19/19 17/18/18 1/16/16
f 9/58/8 25/57/26 26/34/25 10/33/9
f 2/62/1 18/61/17 19/38/32 3/37/2
