# Blender v2.76 (sub 0) OBJ File: ''
# www.blender.org
mtllib MoveFloor.mtl
o Cube
v -1.500000 -0.400000 1.400000
v -1.400000 -0.500000 1.400000
v -1.400000 -0.400000 1.500000
v -1.500000 -0.400000 -1.400000
v -1.400000 -0.400000 -1.500000
v -1.400000 -0.500000 -1.400000
v 1.400000 -0.400000 -1.500000
v 1.500000 -0.400000 -1.400000
v 1.400000 -0.500000 -1.400000
v 1.399999 -0.400000 1.500000
v 1.399999 -0.500000 1.400000
v 1.499999 -0.400000 1.400000
v -1.400001 0.400000 1.499999
v -1.400001 0.500000 1.399999
v -1.500001 0.400000 1.399999
v -1.399999 0.400000 -1.500001
v -1.499999 0.400000 -1.400001
v -1.399999 0.500000 -1.400001
v 1.500000 0.400000 -1.399999
v 1.400000 0.400000 -1.500000
v 1.400000 0.500000 -1.399999
v 1.500000 0.400000 1.400000
v 1.400000 0.500000 1.400000
v 1.400000 0.400000 1.500000
vt 0.683333 0.016667
vt 0.816667 0.016667
vt 0.816667 0.483333
vt 0.683333 0.483333
vt 0.850000 0.016667
vt 0.983333 0.016667
vt 0.983333 0.483333
vt 0.850000 0.483333
vt 0.650000 0.983333
vt 0.516667 0.983333
vt 0.516667 0.516667
vt 0.650000 0.516667
vt 0.016667 0.016667
vt 0.483333 0.016667
vt 0.483333 0.483333
vt 0.016667 0.483333
vt 0.650000 0.483333
vt 0.516667 0.483333
vt 0.516667 0.016667
vt 0.650000 0.016667
vt 0.666667 0.483333
vt 0.650000 0.500000
vt 0.650000 0.000000
vt 0.666667 0.016667
vt 0.850000 0.500000
vt 0.833333 0.483333
vt 0.816667 0.500000
vt 0.683333 0.000000
vt 0.983333 0.000000
vt 1.000000 0.016667
vt 0.516667 1.000000
vt 0.500000 0.983333
vt 0.500000 0.516667
vt 0.516667 0.500000
vt 0.483333 0.983333
vt 0.483333 0.516667
vt 0.816667 0.000000
vt 0.833333 0.016667
vt 0.516667 0.000000
vt 0.666667 0.516667
vt 0.666667 0.983333
vt 0.983333 0.500000
vt 0.000000 0.483333
vt 0.000000 0.016667
vt 0.483333 0.500000
vt 0.016667 0.500000
vt 0.500000 0.016667
vt 0.500000 0.483333
vt 0.016667 0.983333
vt 0.016667 0.516667
vn -0.000000 0.000000 1.000000
vn 0.000000 -0.000000 -1.000000
vn 1.000000 -0.000000 0.000000
vn 0.000000 1.000000 0.000000
vn -1.000000 0.000000 -0.000000
vn -0.577400 -0.577300 0.577400
vn -0.577300 -0.577400 -0.577400
vn 0.577300 -0.577400 -0.577300
vn 0.577400 -0.577300 0.577300
vn -0.577300 0.577400 0.577400
vn -0.577400 0.577300 -0.577300
vn 0.577400 0.577400 -0.577300
vn 0.577400 0.577400 0.577300
vn -0.707100 -0.707100 -0.000000
vn -0.000000 -0.707100 0.707100
vn -0.707100 0.000000 0.707100
vn 0.000000 -0.707100 -0.707100
vn -0.707100 -0.000000 -0.707100
vn 0.707100 -0.707100 0.000000
vn 0.707100 0.000000 -0.707100
vn 0.707100 0.000000 0.707100
vn -0.707100 0.707100 -0.000000
vn -0.000000 0.707100 0.707100
vn 0.000000 0.707100 -0.707100
vn 0.707100 0.707100 0.000000
vn 0.000000 -1.000000 0.000000
usemtl Material
s off
f 13/1/1 3/2/1 10/3/1 24/4/1
f 5/5/2 16/6/2 20/7/2 7/8/2
f 8/9/3 19/10/3 22/11/3 12/12/3
f 14/13/4 23/14/4 21/15/4 18/16/4
f 1/17/5 15/18/5 17/19/5 4/20/5
f 1/17/6 2/21/6 3/22/6
f 4/20/7 5/23/7 6/24/7
f 7/8/8 8/25/8 9/26/8
f 10/3/9 11/26/9 12/27/9
f 13/1/10 14/24/10 15/28/10
f 16/6/11 17/29/11 18/30/11
f 19/10/12 20/31/12 21/32/12
f 22/11/13 23/33/13 24/34/13
f 1/17/14 4/20/14 6/24/14 2/21/14
f 2/35/15 11/36/15 10/33/15 3/32/15
f 3/2/16 13/1/16 15/28/16 1/37/16
f 5/5/17 7/8/17 9/26/17 6/38/17
f 4/20/18 17/19/18 16/39/18 5/23/18
f 8/9/19 12/12/19 11/40/19 9/41/19
f 7/8/20 20/7/20 19/42/20 8/25/20
f 12/12/21 22/11/21 24/34/21 10/22/21
f 14/13/22 18/16/22 17/43/22 15/44/22
f 13/1/23 24/4/23 23/21/23 14/24/23
f 18/16/24 21/15/24 20/45/24 16/46/24
f 21/15/25 23/14/25 22/47/25 19/48/25
f 2/35/26 6/49/26 9/50/26 11/36/26
