# Blender v2.76 (sub 0) OBJ File: 'Saku.blend'
# www.blender.org
mtllib Saku.mtl
o Saku_Plane
v 1.400000 0.200000 -0.600000
v 1.400000 0.200000 -0.800000
v 1.800000 0.200000 -0.600000
v 1.800000 0.200000 -0.800000
v 1.300000 0.000000 -0.900000
v 2.000000 0.000000 -0.500000
v 2.000000 0.000000 -0.900000
v 2.000000 0.200000 -0.900000
v 2.000000 0.200000 -0.500000
v 1.300000 0.200000 -0.900000
v 1.300000 0.200000 -0.500000
v 0.600000 0.200000 -0.600000
v 0.600000 0.200000 -0.800000
v 1.000000 0.200000 -0.600000
v 1.000000 0.200000 -0.800000
v 0.500000 0.000000 -0.900000
v 1.100000 0.000000 -0.900000
v 1.100000 0.200000 -0.900000
v 1.100000 0.200000 -0.500000
v 0.500000 0.200000 -0.900000
v 0.500000 0.200000 -0.500000
v -0.200000 0.200000 -0.600000
v -0.200000 0.200000 -0.800000
v 0.200000 0.200000 -0.600000
v 0.200000 0.200000 -0.800000
v -0.300000 0.000000 -0.900000
v 0.300000 0.000000 -0.900000
v 0.300000 0.200000 -0.900000
v 0.300000 0.200000 -0.500000
v -0.300000 0.200000 -0.900000
v -0.300000 0.200000 -0.500000
v -1.000000 0.200000 -0.600000
v -1.000000 0.200000 -0.800000
v -0.600000 0.200000 -0.600000
v -0.600000 0.200000 -0.800000
v -1.100000 0.000000 -0.900000
v -0.500000 0.000000 -0.900000
v -0.500000 0.200000 -0.900000
v -0.500000 0.200000 -0.500000
v -1.100000 0.200000 -0.900000
v -1.100000 0.200000 -0.500000
v -1.800000 0.200000 -0.600000
v -1.800000 0.200000 -0.800000
v -1.400000 0.200000 -0.600000
v -1.400000 0.200000 -0.800000
v -2.000000 0.000000 -0.500000
v -2.000000 0.000000 -0.900000
v -1.300000 0.000000 -0.900000
v -1.300000 0.200000 -0.900000
v -1.300000 0.200000 -0.500000
v -2.000000 0.200000 -0.900000
v -2.000000 0.200000 -0.500000
v 1.400000 1.300000 -0.600000
v 1.400000 0.200000 -0.600000
v 1.400000 1.300000 -0.800000
v 1.400000 0.200000 -0.800000
v 1.800000 1.300000 -0.600000
v 1.800000 0.200000 -0.600000
v 1.800000 1.300000 -0.800000
v 1.800000 0.200000 -0.800000
v 0.600000 1.300000 -0.600000
v 0.600000 0.200000 -0.600000
v 0.600000 1.300000 -0.800000
v 0.600000 0.200000 -0.800000
v 1.000000 1.300000 -0.600000
v 1.000000 0.200000 -0.600000
v 1.000000 1.300000 -0.800000
v 1.000000 0.200000 -0.800000
v -0.200000 1.300000 -0.600000
v -0.200000 0.200000 -0.600000
v -0.200000 1.300000 -0.800000
v -0.200000 0.200000 -0.800000
v 0.200000 1.300000 -0.600000
v 0.200000 0.200000 -0.600000
v 0.200000 1.300000 -0.800000
v 0.200000 0.200000 -0.800000
v -1.000000 1.300000 -0.600000
v -1.000000 0.200000 -0.600000
v -1.000000 1.300000 -0.800000
v -1.000000 0.200000 -0.800000
v -0.600000 1.300000 -0.600000
v -0.600000 0.200000 -0.600000
v -0.600000 1.300000 -0.800000
v -0.600000 0.200000 -0.800000
v 2.000000 1.300000 -0.500000
v 2.000000 1.500000 -0.500000
v -1.800000 1.300000 -0.600000
v -1.800000 0.200000 -0.600000
v -1.800000 1.300000 -0.800000
v -1.800000 0.200000 -0.800000
v -1.400000 1.300000 -0.600000
v -1.400000 0.200000 -0.600000
v -1.400000 1.300000 -0.800000
v -1.400000 0.200000 -0.800000
v 2.000000 1.300000 -0.900000
v -2.000000 1.300000 -0.900000
v -2.000000 1.500000 -0.500000
v -2.000000 1.300000 -0.500000
v -2.000000 1.500000 -0.900000
v 2.000000 1.500000 -0.900000
v 1.300000 0.000000 -0.500000
v 1.100000 0.000000 -0.500000
v 0.500000 0.000000 -0.500000
v 0.300000 0.000000 -0.500000
v -0.300000 0.000000 -0.500000
v -0.500000 0.000000 -0.500000
v -1.100000 0.000000 -0.500000
v -1.300000 0.000000 -0.500000
vt -0.038617 0.327235
vt -0.038617 0.192719
vt -0.000184 0.192719
vt -0.000184 0.327235
vt -0.057834 0.308018
vt -0.057834 0.231152
vt -0.096267 0.231152
vt -0.115484 0.192719
vt -0.096267 0.308018
vt -0.115484 0.327235
vt -0.038617 0.480968
vt -0.038617 0.365668
vt -0.000184 0.365668
vt -0.000184 0.480968
vt -0.057834 0.461751
vt -0.057834 0.384885
vt -0.096267 0.384885
vt -0.115484 0.365668
vt -0.096267 0.461751
vt -0.115484 0.480968
vt -0.038617 0.634701
vt -0.038617 0.519401
vt -0.000184 0.519401
vt -0.000184 0.634701
vt -0.057834 0.615484
vt -0.057834 0.538618
vt -0.096267 0.538618
vt -0.115484 0.519401
vt -0.096267 0.615484
vt -0.115484 0.634701
vt -0.038617 0.788433
vt -0.038617 0.673134
vt -0.000184 0.673134
vt -0.000184 0.788433
vt -0.057834 0.769217
vt -0.057834 0.692350
vt -0.096267 0.692350
vt -0.115484 0.673134
vt -0.096267 0.769217
vt -0.115484 0.788433
vt -0.038617 0.961383
vt -0.038617 0.826867
vt -0.000184 0.826867
vt -0.000184 0.961383
vt -0.057834 0.922950
vt -0.057834 0.846083
vt -0.096267 0.846083
vt -0.115484 0.826867
vt -0.096267 0.922950
vt -0.115484 0.961383
vt -0.115484 0.154286
vt -0.038617 0.154286
vt -0.115484 0.999816
vt -0.038617 0.999816
vt 0.000184 0.000184
vt 0.038617 0.000184
vt 0.038617 0.077050
vt 0.000184 0.077050
vt 0.423686 0.365668
vt 0.385253 0.365668
vt 0.385253 0.154285
vt 0.423686 0.154285
vt 0.500553 0.365668
vt 0.500553 0.154285
vt 0.538986 0.365668
vt 0.538986 0.154285
vt 0.423686 0.577419
vt 0.385253 0.577419
vt 0.385253 0.366036
vt 0.423686 0.366036
vt 0.500553 0.577419
vt 0.500553 0.366036
vt 0.538986 0.577419
vt 0.538986 0.366036
vt 0.192719 0.789170
vt 0.154286 0.789170
vt 0.154286 0.577787
vt 0.192719 0.577787
vt 0.269585 0.789170
vt 0.269585 0.577787
vt 0.308019 0.789170
vt 0.308019 0.577787
vt 0.038617 0.845714
vt 0.000184 0.845714
vt 0.192719 0.365668
vt 0.154286 0.365668
vt 0.154286 0.154285
vt 0.192719 0.154285
vt 0.269585 0.365668
vt 0.269585 0.154285
vt 0.308019 0.365668
vt 0.308019 0.154285
vt 0.192719 0.577419
vt 0.154286 0.577419
vt 0.154286 0.366036
vt 0.192719 0.366036
vt 0.269585 0.577419
vt 0.269585 0.366036
vt 0.308019 0.577419
vt 0.308019 0.366036
vt 0.038617 0.922581
vt 0.000184 0.922581
vt 0.115484 0.077050
vt 0.115484 0.845714
vt -0.153917 0.673134
vt -0.153917 0.634701
vt 0.153916 0.077050
vt 0.153918 0.845714
vt 0.615852 0.154285
vt 0.615852 0.365668
vt 0.615852 0.366036
vt 0.615852 0.577419
vt 0.384885 0.577787
vt 0.384885 0.789170
vt 0.384885 0.154285
vt 0.384885 0.365668
vt 0.384885 0.366036
vt 0.384885 0.577419
vt -0.153917 0.788433
vt -0.153917 0.365668
vt -0.153917 0.327235
vt -0.153917 0.826867
vt -0.153917 0.519401
vt -0.153917 0.480968
vt -0.153917 0.961383
vt -0.153917 0.192719
vn 0.000000 0.000000 -1.000000
vn 0.000000 1.000000 0.000000
vn 1.000000 0.000000 0.000000
vn -1.000000 0.000000 0.000000
vn 0.000000 0.000000 1.000000
usemtl Material
s off
f 10/1/1 8/2/1 7/3/1 5/4/1
f 2/5/2 4/6/2 8/2/2 10/1/2
f 4/6/2 3/7/2 9/8/2 8/2/2
f 3/7/2 1/9/2 11/10/2 9/8/2
f 1/9/2 2/5/2 10/1/2 11/10/2
f 20/11/1 18/12/1 17/13/1 16/14/1
f 13/15/2 15/16/2 18/12/2 20/11/2
f 15/16/2 14/17/2 19/18/2 18/12/2
f 14/17/2 12/19/2 21/20/2 19/18/2
f 12/19/2 13/15/2 20/11/2 21/20/2
f 30/21/1 28/22/1 27/23/1 26/24/1
f 23/25/2 25/26/2 28/22/2 30/21/2
f 25/26/2 24/27/2 29/28/2 28/22/2
f 24/27/2 22/29/2 31/30/2 29/28/2
f 22/29/2 23/25/2 30/21/2 31/30/2
f 40/31/1 38/32/1 37/33/1 36/34/1
f 33/35/2 35/36/2 38/32/2 40/31/2
f 35/36/2 34/37/2 39/38/2 38/32/2
f 34/37/2 32/39/2 41/40/2 39/38/2
f 32/39/2 33/35/2 40/31/2 41/40/2
f 51/41/1 49/42/1 48/43/1 47/44/1
f 43/45/2 45/46/2 49/42/2 51/41/2
f 45/46/2 44/47/2 50/48/2 49/42/2
f 44/47/2 42/49/2 52/50/2 50/48/2
f 42/49/2 43/45/2 51/41/2 52/50/2
f 8/2/3 9/8/3 6/51/3 7/52/3
f 46/53/4 52/50/4 51/41/4 47/54/4
f 10/1/2 18/12/2 19/18/2 11/10/2
f 5/4/1 17/13/1 18/12/1 10/1/1
f 20/11/2 28/22/2 29/28/2 21/20/2
f 16/14/1 27/23/1 28/22/1 20/11/1
f 30/21/2 38/32/2 39/38/2 31/30/2
f 26/24/1 37/33/1 38/32/1 30/21/1
f 40/31/2 49/42/2 50/48/2 41/40/2
f 36/34/1 48/43/1 49/42/1 40/31/1
f 98/55/4 97/56/4 99/57/4 96/58/4
f 59/59/3 57/60/3 58/61/3 60/62/3
f 55/63/1 59/59/1 60/62/1 56/64/1
f 53/65/4 55/63/4 56/64/4 54/66/4
f 67/67/3 65/68/3 66/69/3 68/70/3
f 63/71/1 67/67/1 68/70/1 64/72/1
f 61/73/4 63/71/4 64/72/4 62/74/4
f 75/75/3 73/76/3 74/77/3 76/78/3
f 71/79/1 75/75/1 76/78/1 72/80/1
f 69/81/4 71/79/4 72/80/4 70/82/4
f 99/57/1 100/83/1 95/84/1 96/58/1
f 83/85/3 81/86/3 82/87/3 84/88/3
f 79/89/1 83/85/1 84/88/1 80/90/1
f 77/91/4 79/89/4 80/90/4 78/92/4
f 93/93/3 91/94/3 92/95/3 94/96/3
f 89/97/1 93/93/1 94/96/1 90/98/1
f 87/99/4 89/97/4 90/98/4 88/100/4
f 95/84/3 100/83/3 86/101/3 85/102/3
f 100/83/2 99/57/2 97/103/2 86/104/2
f 31/30/5 39/38/5 106/105/5 105/106/5
f 98/107/5 85/108/5 86/104/5 97/103/5
f 54/66/5 58/109/5 57/110/5 53/65/5
f 62/74/5 66/111/5 65/112/5 61/73/5
f 70/82/5 74/113/5 73/114/5 69/81/5
f 78/92/5 82/115/5 81/116/5 77/91/5
f 88/100/5 92/117/5 91/118/5 87/99/5
f 39/38/5 41/40/5 107/119/5 106/105/5
f 11/10/5 19/18/5 102/120/5 101/121/5
f 41/40/5 50/48/5 108/122/5 107/119/5
f 29/28/5 31/30/5 105/106/5 104/123/5
f 19/18/5 21/20/5 103/124/5 102/120/5
f 21/20/5 29/28/5 104/123/5 103/124/5
f 46/125/5 108/122/5 50/48/5 52/50/5
f 9/8/5 11/10/5 101/121/5 6/126/5
